Coordinates
version=1
nRows=13
nColumns=36
inDegrees=yes

Units are S.I. units (second, meters, Newtons, ...)
If the header above contains a line with 'inDegrees', this indicates whether rotational values are in degrees (yes) or radians (no).

endheader
time	pelvis_tilt	pelvis_list	pelvis_rotation	pelvis_tx	pelvis_ty	pelvis_tz	hip_flexion_r	hip_adduction_r	hip_rotation_r	knee_angle_r	knee_angle_r_beta	ankle_angle_r	subtalar_angle_r	mtp_angle_r	hip_flexion_l	hip_adduction_l	hip_rotation_l	knee_angle_l	knee_angle_l_beta	ankle_angle_l	subtalar_angle_l	mtp_angle_l	lumbar_extension	lumbar_bending	lumbar_rotation	arm_flex_r	arm_add_r	arm_rot_r	elbow_flex_r	pro_sup_r	arm_flex_l	arm_add_l	arm_rot_l	elbow_flex_l	pro_sup_l
      0.68000000	     -0.42276367	      1.96979409	     -2.42582807	      0.69372302	      1.01735754	     -0.21172279	     -5.10759938	     -3.67178018	     -9.27560442	     44.24798380	      0.77227300	     -9.13395953	     -1.24149080	     -6.82301334	     22.07240353	      4.53901721	     -1.96407964	     19.79727679	      0.34552766	     -3.83054135	     -8.55861718	     -6.82301334	     -9.69572497	     -3.10210593	      7.38423135	     -3.79038231	     -6.80625053	    -16.58973566	     44.75055669	    108.93987451	    -10.35705717	     -7.47681945	     -5.46079525	     32.85610560	    109.28547434
      0.69000000	     -0.31041013	      2.37807879	     -2.32159810	      0.70691262	      1.01842120	     -0.21283024	     -3.05242169	     -4.69770375	     -9.16783771	     48.36057656	      0.84405129	    -11.96700890	     -2.20680202	     -6.83053799	     21.24635384	      5.14799802	     -1.89763422	     20.05729541	      0.35006584	     -2.74055552	     -8.76262517	     -6.83053799	     -9.91675339	     -3.61216925	      6.79406380	     -3.99595129	     -6.57158130	    -16.45807046	     44.40814608	    108.94490594	     -9.61205700	     -7.48423872	     -5.24717906	     33.34067552	    109.30145118
      0.70000000	     -0.47398931	      2.63643211	     -2.26957604	      0.71965445	      1.01897884	     -0.21368940	     -0.58585685	     -5.41834184	     -8.82793358	     52.34324397	      0.91356195	    -15.03279635	     -4.22365892	     -6.84125810	     20.75580395	      5.54061527	     -1.89306820	     20.33468428	      0.35490719	     -1.85047843	     -8.83543459	     -6.84125810	     -9.84818280	     -3.94677414	      6.30261631	     -4.17579701	     -6.40178735	    -16.24628371	     43.89684488	    108.95989304	     -8.89380647	     -7.50495685	     -4.92632096	     33.92038876	    109.29875771
      0.71000000	     -0.58808227	      2.74322595	     -2.24304846	      0.73225645	      1.01962746	     -0.21436600	      1.77605414	     -5.88774178	     -8.48576262	     55.94962811	      0.97650523	    -17.94540359	     -6.51875195	     -6.85632428	     20.20870317	      5.73768422	     -1.97682536	     20.60715207	      0.35966265	     -0.99493158	     -8.80406959	     -6.85632428	     -9.82647933	     -4.08909446	      5.81488406	     -4.28148218	     -6.30376352	    -15.93961138	     43.33492793	    108.99143117	     -8.09085613	     -7.52219552	     -4.52698452	     34.41373980	    109.24067044
      0.72000000	     -0.47120360	      2.97829685	     -2.26748783	      0.74487485	      1.02060380	     -0.21500144	      3.84973344	     -6.53306855	     -8.17609868	     59.29133319	      1.03482898	    -19.63596024	     -7.56312700	     -6.86319363	     19.27355973	      6.10216438	     -2.03874505	     20.62711161	      0.36001101	      0.04054256	     -8.92779957	     -6.86319363	    -10.08395122	     -4.37685167	      5.37018131	     -4.39116712	     -6.17670986	    -15.74195171	     42.90179183	    109.00189230	     -7.16221084	     -7.52811670	     -4.25295573	     34.82618871	    109.23123485
      0.73000000	     -0.51529288	      3.12386293	     -2.32391050	      0.75731727	      1.02139280	     -0.21534715	      6.09594905	     -6.96183812	     -7.82962677	     62.37138959	      1.08858611	    -20.78541078	     -9.20147253	     -6.87060653	     18.51583661	      6.31899530	     -2.16317749	     20.62658253	      0.36000178	      0.90652301	     -8.89438100	     -6.87060653	    -10.14396801	     -4.55834371	      4.99763545	     -4.49130886	     -6.09330322	    -15.47404079	     42.31163415	    109.01537175	     -6.23875253	     -7.58275381	     -3.86614978	     35.28751373	    109.22745427
      0.74000000	     -0.43735271	      3.14473912	     -2.33463177	      0.76968922	      1.02253644	     -0.21553902	      8.08684105	     -7.14767440	     -7.50468305	     65.01184515	      1.13467075	    -21.07235706	    -10.67270221	     -6.87655596	     17.61004795	      6.40335084	     -2.25600713	     20.60713048	      0.35966228	      1.68283792	     -8.81139948	     -6.87655596	    -10.36018594	     -4.60633018	      4.59409705	     -4.53839617	     -6.01943325	    -15.21141992	     41.72646877	    109.02624437	     -5.22506707	     -7.61801362	     -3.49646041	     35.69471299	    109.23002051
      0.75000000	     -0.48115907	      3.06211511	     -2.35217143	      0.78207272	      1.02359893	     -0.21555958	     10.16180636	     -7.15814392	     -7.26171201	     67.32512355	      1.17504508	    -21.10719650	    -12.52069099	     -6.89747609	     16.87090057	      6.29785889	     -2.55903783	     20.66784176	      0.36072189	      2.63507763	     -8.13970075	     -6.89747609	    -10.37821164	     -4.51191010	      4.17991643	     -4.54846980	     -6.06460010	    -14.60228907	     40.90311490	    109.09462634	     -4.26159206	     -7.77727222	     -2.67099383	     36.01728616	    109.09347645
      0.76000000	     -0.28886776	      3.03659144	     -2.33420898	      0.79453746	      1.02516447	     -0.21567031	     11.87823332	     -7.22762631	     -7.07609978	     69.27596027	      1.20909360	    -19.89077405	    -13.52466198	     -6.90577965	     15.72397239	      6.33625829	     -2.57971713	     20.44674777	      0.35686307	      3.33042127	     -7.93550288	     -6.90577965	    -10.68948390	     -4.47428084	      3.77713056	     -4.61434845	     -6.00093677	    -14.43600717	     40.34795197	    109.09958350	     -3.19512712	     -7.80171816	     -2.37058170	     36.41140665	    109.06318407
      0.77000000	     -0.14833586	      3.00277017	     -2.29311646	      0.80698311	      1.02670323	     -0.21580631	     13.60907520	     -7.26773185	     -6.92001392	     70.94215685	      1.23817422	    -18.03809534	    -14.00483681	     -6.92139116	     14.63615359	      6.35002486	     -2.64815757	     20.22372552	      0.35297060	      4.11535225	     -7.42449982	     -6.92139116	    -10.92606912	     -4.39906774	      3.33476242	     -4.64192646	     -6.00957463	    -14.08369411	     39.63881649	    109.13820138	     -2.16094026	     -7.90124009	     -1.80001253	     36.80991983	    108.99420079
      0.78000000	      0.08371015	      2.86605718	     -2.19161693	      0.81943107	      1.02849766	     -0.21597875	     15.11309945	     -7.13472040	     -6.84332112	     72.13918661	      1.25906633	    -16.51225211	    -14.82150136	     -6.92613497	     13.39242569	      6.29737472	     -2.49345834	     19.89782585	      0.34728258	      4.67248595	     -7.30476872	     -6.92613497	    -11.28095861	     -4.19787019	      2.92417042	     -4.75715104	     -5.99504134	    -13.99914901	     39.16006838	    109.13410978	     -1.05350797	     -7.87483398	     -1.63021502	     37.24180448	    108.99866665
      0.79000000	      0.28106770	      2.79519023	     -2.03619575	      0.83182631	      1.03022510	     -0.21629657	     16.61280940	     -7.12080527	     -6.81970179	     73.09627699	      1.27577070	    -14.22328317	    -14.33183248	     -6.94619811	     12.17060293	      6.31465810	     -2.35698191	     19.51635532	      0.34062466	      5.34007166	     -6.80355423	     -6.94619811	    -11.59403820	     -4.03177003	      2.39154470	     -4.79348572	     -6.01404246	    -13.71522945	     38.55113037	    109.18974580	     -0.01714955	     -7.95506738	     -1.15191620	     37.74313539	    108.90614601
      0.80000000	      0.42526637	      2.61077700	     -1.84165695	      0.84411716	      1.03186009	     -0.21656810	     18.08918764	     -6.90615224	     -6.86018097	     73.65754349	      1.28556665	    -13.11697722	    -14.83493196	     -6.95000715	     10.99248710	      6.22469912	     -2.03210433	     19.10286324	      0.33340786	      5.74198068	     -6.67926947	     -6.95000715	    -11.84911531	     -3.73281291	      1.94011166	     -4.95955673	     -6.01342106	    -13.73098225	     38.15985588	    109.17811209	      1.04042382	     -7.92644958	     -1.05950869	     38.27763155	    108.92690868
